<?xml version="1.0" standalone="no"?>
<!DOCTYPE svg PUBLIC "-//W3C//DTD SVG 20010904//EN"
 "http://www.w3.org/TR/2001/REC-SVG-20010904/DTD/svg10.dtd">
<svg version="1.0" xmlns="http://www.w3.org/2000/svg"
 width="96.000000pt" height="96.000000pt" viewBox="0 0 96.000000 96.000000"
 preserveAspectRatio="xMidYMid meet">
<metadata>
Created by potrace 1.14, written by Peter Selinger 2001-2017
</metadata>
<g transform="translate(0.000000,96.000000) scale(0.100000,-0.100000)"
fill="#000000" stroke="none">
<path d="M5 948 c-3 -7 -4 -222 -3 -478 l3 -465 475 0 475 0 0 475 0 475 -473
3 c-373 2 -474 0 -477 -10z m925 -468 l0 -450 -450 0 -450 0 0 450 0 450 450
0 450 0 0 -450z"/>
<path d="M120 720 l0 -150 76 0 c88 0 111 10 130 55 15 37 8 71 -20 94 -14 12
-14 15 0 37 19 28 12 66 -16 94 -16 16 -34 20 -95 20 l-75 0 0 -150z m134 104
c21 -8 21 -60 0 -68 -9 -3 -33 -6 -55 -6 -39 0 -39 0 -39 40 0 40 0 40 39 40
22 0 46 -3 55 -6z m17 -124 c22 -12 26 -59 7 -78 -7 -7 -36 -12 -65 -12 l-53
0 0 50 0 50 46 0 c25 0 54 -5 65 -10z"/>
<path d="M422 755 c-75 -63 -35 -185 60 -185 18 0 39 4 47 9 9 6 21 5 33 -2
57 -36 48 138 -9 183 -37 29 -94 27 -131 -5z m110 -32 c39 -36 12 -113 -41
-113 -32 0 -44 8 -60 38 -32 61 49 122 101 75z"/>
<path d="M647 773 c-4 -3 -7 -48 -7 -100 0 -77 3 -95 16 -100 24 -9 34 15 34
83 0 67 11 84 51 84 41 0 59 -33 59 -107 0 -56 2 -63 20 -63 18 0 20 7 20 71
0 100 -24 138 -88 139 -18 0 -42 -5 -53 -10 -13 -7 -19 -7 -19 0 0 11 -23 14
-33 3z"/>
<path d="M607 443 c-4 -3 -7 -69 -7 -145 0 -118 2 -140 16 -145 24 -9 34 15
34 83 0 67 11 84 51 84 41 0 59 -33 59 -107 0 -56 2 -63 20 -63 18 0 20 7 20
70 0 111 -30 148 -109 137 -41 -5 -41 -5 -41 28 0 55 -20 82 -43 58z"/>
<path d="M153 348 c-32 -15 -56 -73 -49 -113 9 -45 57 -85 102 -85 43 0 74 15
74 36 0 13 -8 14 -40 9 -21 -4 -48 -4 -58 -1 -42 14 -50 95 -12 116 25 13 63
13 77 -1 7 -7 20 -8 30 -5 16 7 15 10 -10 32 -30 26 -76 31 -114 12z"/>
<path d="M340 282 c0 -72 2 -82 26 -106 25 -24 33 -26 98 -23 l71 3 0 99 c0
93 -1 100 -20 100 -18 0 -20 -8 -23 -70 -3 -78 -13 -95 -52 -95 -42 0 -59 27
-62 100 -2 52 -6 65 -20 68 -16 3 -18 -6 -18 -76z"/>
</g>
</svg>
