<?xml version="1.0" standalone="no"?>
<!DOCTYPE svg PUBLIC "-//W3C//DTD SVG 20010904//EN"
 "http://www.w3.org/TR/2001/REC-SVG-20010904/DTD/svg10.dtd">
<svg version="1.0" xmlns="http://www.w3.org/2000/svg"
 width="261.000000pt" height="261.000000pt" viewBox="0 0 261.000000 261.000000"
 preserveAspectRatio="xMidYMid meet">
<metadata>
Created by potrace 1.14, written by Peter Selinger 2001-2017
</metadata>
<g transform="translate(0.000000,261.000000) scale(0.100000,-0.100000)"
fill="#000000" stroke="none">
<path d="M426 2234 c-14 -13 -16 -58 -16 -334 0 -283 2 -320 17 -335 14 -14
38 -16 177 -13 173 3 210 13 263 70 80 86 63 235 -32 283 l-40 21 36 34 c64
62 60 161 -10 231 -48 49 -91 59 -248 59 -106 0 -135 -3 -147 -16z m327 -94
c52 -41 44 -136 -14 -165 -19 -10 -61 -15 -134 -15 l-105 0 0 100 0 100 114 0
c99 0 117 -3 139 -20z m48 -308 c33 -37 38 -85 14 -132 -26 -50 -60 -60 -195
-60 l-120 0 0 116 0 116 136 -4 136 -3 29 -33z"/>
<path d="M1210 2041 c-77 -24 -151 -93 -169 -158 -35 -126 12 -253 111 -304
82 -42 168 -34 241 23 l37 29 0 -25 c0 -26 23 -56 44 -56 7 0 20 6 30 13 16
12 18 28 14 163 -4 163 -11 188 -71 252 -53 56 -164 85 -237 63z m149 -98 c49
-37 71 -81 71 -143 0 -127 -114 -204 -224 -151 -62 30 -89 77 -89 151 0 72 27
120 86 150 50 25 115 22 156 -7z"/>
<path d="M1827 2036 c-21 -8 -47 -22 -58 -32 -17 -15 -19 -15 -19 -1 0 25 -38
41 -66 28 l-24 -11 0 -224 c0 -213 1 -226 19 -236 27 -14 37 -13 55 6 13 13
16 42 16 162 0 130 2 151 20 180 38 62 138 79 199 35 51 -38 61 -75 61 -230 0
-133 1 -143 20 -153 28 -15 59 -3 66 25 3 13 4 88 2 167 -3 123 -6 149 -25
184 -52 97 -160 138 -266 100z"/>
<path d="M1572 1158 c-17 -17 -17 -659 0 -676 19 -19 45 -14 62 10 13 18 16
53 16 171 l0 149 33 33 c79 79 213 45 238 -62 5 -21 9 -94 9 -164 0 -128 6
-149 41 -149 37 0 49 38 49 156 0 201 -29 276 -123 320 -77 35 -175 27 -227
-21 -18 -16 -18 -13 -22 105 -2 94 -6 123 -18 130 -21 13 -44 12 -58 -2z"/>
<path d="M542 956 c-64 -21 -107 -59 -138 -121 -23 -49 -26 -64 -22 -128 5
-79 22 -119 67 -164 48 -49 97 -68 176 -67 105 0 190 50 164 97 -13 23 -40 22
-89 -4 -51 -27 -123 -22 -169 10 -90 64 -89 217 2 285 45 33 132 30 180 -7 44
-34 80 -33 85 1 10 72 -150 133 -256 98z"/>
<path d="M945 943 c-15 -14 -17 -36 -13 -167 3 -130 7 -157 25 -191 28 -53 59
-81 112 -100 72 -25 164 -13 210 30 17 15 19 14 25 -9 7 -30 48 -45 71 -26 12
10 15 50 15 234 0 229 -3 246 -41 246 -43 0 -49 -24 -49 -180 0 -145 -1 -149
-26 -179 -47 -56 -141 -65 -199 -19 -46 36 -55 74 -55 222 0 124 -2 136 -19
146 -27 14 -37 13 -56 -7z"/>
</g>
</svg>
